<?xml version="1.0" encoding="UTF-8"?>
<svg xmlns="http://www.w3.org/2000/svg" viewBox="0 0 775.56 775.56">
  <g id="Layer_2" data-name="Layer 2">
    <path d="M0,387.78C0,69.8,69.8,0,387.78,0s387.78,69.8,387.78,387.78-69.8,387.78-387.78,387.78S0,705.76,0,387.78" style="fill: #039;"/>
  </g>
  <g id="Layer_1" data-name="Layer 1">
    <g>
      <path d="M198.28,636.18s0-23.47,1.09-27.23c3.33-32.28,6.17-64.65,7.27-97.05.73-21.38,2.33-39.39-4.97-60.05-7.84-22.19-24.15-40.57-29.17-64.15-6.01-28.26-5.93-64-.59-92.34,14.6-77.41,69.91-121.74,132.4-132.63,7.04-1.22,14.18-2.02,21.36-2.39,47.67-2.49,97.26,13.78,134.69,49,2.03,1.92,4.03,3.89,5.99,5.92,11.17,11.54,21.09,24.89,29.36,40.06,14.02,25.72,30.68,72.49,21.39,101.07-2.35,7.21-9.13,16.61-7.99,23.98.5,3.24,3,5.75,4.91,8.34,10.68,14.43,23.05,27.69,33.61,42.24,4.59,8.39,1.64,19.2-5.37,25.26-7.11,6.16-20.99,6.27-30.09,8.45-.69.16-1.23.14-1.49.96-.11.34-.89,14.02-1.82,30.47-1.4,24.85-3.12,56.02-3.31,57.07-.22,1.19-.47,2.34-.78,3.43-1.33,4.77-3.48,8.65-6.25,11.81-7.47,8.5-19.49,11.65-32.06,12.36-.07,0-.14,0-.2,0-1.27.05-2.55.1-3.82.13-1.41.03-2.82.03-4.22,0-1.25-.03-2.48-.07-3.73-.13h-.09c-.06,0-.14,0-.2,0-2.76-.14-5.49-.33-8.13-.59-3.84-.35-7.52-.79-10.9-1.24-13.73-1.8-27.12-5.29-40.73-7.74l-1.07,37.77-.72,25.16" style="fill: none; stroke: #fff; stroke-miterlimit: 10; stroke-width: 34px;"/>
      <path d="M283.67,601.88s0-23.47,1.09-27.23c3.33-32.28,6.17-64.65,7.27-97.05.73-21.38,2.33-39.39-4.97-60.05-7.84-22.19-24.15-40.57-29.17-64.15-6.01-28.26-5.93-64-.59-92.34,14.6-77.41,69.91-121.74,132.4-132.63,7.04-1.22,14.18-2.02,21.36-2.39,47.67-2.49,97.26,13.78,134.69,49,2.03,1.92,4.03,3.89,5.99,5.92,11.17,11.54,21.09,24.89,29.36,40.06,14.02,25.72,30.68,72.49,21.39,101.07-2.35,7.21-9.13,16.61-7.99,23.98.5,3.24,3,5.75,4.91,8.34,10.68,14.43,23.05,27.69,33.61,42.24,4.59,8.39,1.64,19.2-5.37,25.26-7.11,6.16-20.99,6.27-30.09,8.45-.69.16-1.23.14-1.49.96-.11.34-.89,14.02-1.82,30.47-1.4,24.85-3.12,56.02-3.31,57.07-.22,1.19-.47,2.34-.78,3.43-1.33,4.77-3.48,8.65-6.25,11.81-7.47,8.5-19.49,11.65-32.06,12.36-.07,0-.14,0-.2,0-1.27.05-2.55.1-3.82.13-1.41.03-2.82.03-4.22,0-1.25-.03-2.48-.07-3.73-.13h-.09c-.06,0-.14,0-.2,0-2.76-.14-5.49-.33-8.13-.59-3.84-.35-7.52-.79-10.9-1.24" style="fill: none; stroke: #fff; stroke-linejoin: round; stroke-width: 34px;"/>
      <g>
        <line x1="403.63" y1="169.6" x2="385.83" y2="178.71" style="fill: none; stroke: #fff; stroke-linejoin: round; stroke-width: 17px;"/>
        <line x1="371.69" y1="185.95" x2="275.05" y2="235.4" style="fill: none; stroke: #fff; stroke-dasharray: 42.36 15.89; stroke-linejoin: round; stroke-width: 17px;"/>
        <line x1="267.98" y1="239.02" x2="250.18" y2="248.13" style="fill: none; stroke: #fff; stroke-linejoin: round; stroke-width: 17px;"/>
      </g>
      <g>
        <line x1="441.54" y1="202.09" x2="423.75" y2="211.22" style="fill: none; stroke: #fff; stroke-linejoin: round; stroke-width: 17px;"/>
        <line x1="411.89" y1="217.3" x2="287.44" y2="281.1" style="fill: none; stroke: #fff; stroke-dasharray: 35.52 13.32; stroke-linejoin: round; stroke-width: 17px;"/>
        <line x1="281.52" y1="284.14" x2="263.72" y2="293.26" style="fill: none; stroke: #fff; stroke-linejoin: round; stroke-width: 17px;"/>
      </g>
      <g>
        <line x1="474.94" y1="236.4" x2="457.16" y2="245.55" style="fill: none; stroke: #fff; stroke-linejoin: round; stroke-width: 17px;"/>
        <line x1="442.76" y1="252.97" x2="291.53" y2="330.87" style="fill: none; stroke: #fff; stroke-dasharray: 43.2 16.2; stroke-linejoin: round; stroke-width: 17px;"/>
        <line x1="284.33" y1="334.58" x2="266.55" y2="343.74" style="fill: none; stroke: #fff; stroke-linejoin: round; stroke-width: 17px;"/>
      </g>
      <g>
        <line x1="496.33" y1="277.45" x2="478.55" y2="286.61" style="fill: none; stroke: #fff; stroke-linejoin: round; stroke-width: 17px;"/>
        <line x1="464.15" y1="294.03" x2="312.92" y2="371.93" style="fill: none; stroke: #fff; stroke-dasharray: 43.2 16.2; stroke-linejoin: round; stroke-width: 17px;"/>
        <line x1="305.72" y1="375.64" x2="287.94" y2="384.8" style="fill: none; stroke: #fff; stroke-linejoin: round; stroke-width: 17px;"/>
      </g>
      <g>
        <line x1="507.03" y1="324.35" x2="489.25" y2="333.51" style="fill: none; stroke: #fff; stroke-linejoin: round; stroke-width: 17px;"/>
        <line x1="474.85" y1="340.93" x2="323.62" y2="418.83" style="fill: none; stroke: #fff; stroke-dasharray: 43.2 16.2; stroke-linejoin: round; stroke-width: 17px;"/>
        <line x1="316.42" y1="422.53" x2="298.64" y2="431.69" style="fill: none; stroke: #fff; stroke-linejoin: round; stroke-width: 17px;"/>
      </g>
      <g>
        <line x1="509.74" y1="374.41" x2="491.96" y2="383.57" style="fill: none; stroke: #fff; stroke-linejoin: round; stroke-width: 17px;"/>
        <line x1="477.56" y1="390.99" x2="326.33" y2="468.89" style="fill: none; stroke: #fff; stroke-dasharray: 43.2 16.2; stroke-linejoin: round; stroke-width: 17px;"/>
        <line x1="319.13" y1="472.59" x2="301.35" y2="481.75" style="fill: none; stroke: #fff; stroke-linejoin: round; stroke-width: 17px;"/>
      </g>
      <g>
        <line x1="527.29" y1="417.83" x2="509.52" y2="427" style="fill: none; stroke: #fff; stroke-linejoin: round; stroke-width: 17px;"/>
        <line x1="497.43" y1="433.24" x2="326.2" y2="521.6" style="fill: none; stroke: #fff; stroke-dasharray: 36.27 13.6; stroke-linejoin: round; stroke-width: 17px;"/>
        <line x1="320.16" y1="524.72" x2="302.39" y2="533.89" style="fill: none; stroke: #fff; stroke-linejoin: round; stroke-width: 17px;"/>
      </g>
      <g>
        <line x1="518.27" y1="473.46" x2="500.5" y2="482.63" style="fill: none; stroke: #fff; stroke-linejoin: round; stroke-width: 17px;"/>
        <line x1="488.41" y1="488.86" x2="317.18" y2="577.22" style="fill: none; stroke: #fff; stroke-dasharray: 36.27 13.6; stroke-linejoin: round; stroke-width: 17px;"/>
        <line x1="311.14" y1="580.34" x2="293.37" y2="589.51" style="fill: none; stroke: #fff; stroke-linejoin: round; stroke-width: 17px;"/>
      </g>
      <g>
        <line x1="509.24" y1="529.76" x2="491.48" y2="538.96" style="fill: none; stroke: #fff; stroke-linejoin: round; stroke-width: 17px;"/>
        <line x1="480.91" y1="544.44" x2="408.62" y2="581.9" style="fill: none; stroke: #fff; stroke-dasharray: 31.77 11.91; stroke-linejoin: round; stroke-width: 17px;"/>
        <line x1="403.34" y1="584.64" x2="385.58" y2="593.85" style="fill: none; stroke: #fff; stroke-linejoin: round; stroke-width: 17px;"/>
      </g>
    </g>
  </g>
</svg>